<svg xmlns="http://www.w3.org/2000/svg" viewBox="45 50 220 220" fill="currentColor">
  <path style="fill:#000000" d="M 70.78611,257.25 C 66.994936,251.5166 65,247.31016 65,245.04966 65,243.25101 65.625422,243 70.106989,243 c 4.487754,0 5.014487,-0.21219 4.344105,-1.75 -7.02233,-16.10872 -4.992669,-39.48464 4.956679,-57.08683 8.015656,-14.18115 12.938036,-19.58518 22.126117,-24.29116 l 6.5836,-3.37201 -0.54667,-4 c -2.03373,-14.88081 12.15157,-27.72694 25.41501,-23.0157 C 140.99747,132.33008 147,140.19428 147,147.84494 l 0,3.92461 5.58337,0.6976 c 3.07085,0.38368 7.84744,0.3862 10.61465,0.006 5.07062,-0.69739 18.64652,1.20722 29.45589,4.13247 2.83465,0.76712 5.36069,1.39476 5.61343,1.39476 1.12419,0 5.97264,-12.6349 7.31032,-19.05046 2.46794,-11.83629 1.99646,-12.23963 -19.85152,-16.98268 -7.41307,-1.60933 -10.77001,-2.88814 -13.89801,-5.29435 -10.04832,-7.72969 -10.42299,-19.210814 -0.78949,-24.19249 4.05283,-2.095802 8.54189,-1.843667 16.72429,0.939347 21.36498,7.266693 35.81728,18.495553 37.86692,29.421083 0.9157,4.88113 -1.15601,14.27791 -4.69237,21.2834 -2.64721,5.24409 -10.87891,16.42931 -13.26967,18.0308 -0.5375,0.36005 2.05078,3.71265 5.75174,7.45021 8.00517,8.08433 13.81429,17.4783 17.38727,28.11709 2.30068,6.85045 2.61317,9.38805 2.62028,21.27805 0.007,11.67785 -0.29602,14.26295 -2.2449,19.15254 -2.78673,6.9917 -7.71219,13.55952 -12.80894,17.07998 C 210.19718,260.87996 208.5228,261 137.92279,261 l -64.657017,0 -2.479663,-3.75 z m 139.0946,-4.4549 c 7.54356,-2.31276 14.48043,-11.50271 17.11209,-22.67007 1.60672,-6.81806 0.83519,-21.86953 -1.46731,-28.62503 -3.93394,-11.54217 -8.6428,-19.63251 -15.47501,-26.58779 -6.38095,-6.49588 -9.35333,-8.05292 -11.60048,-6.07678 -0.5225,0.45948 -3.16342,2.09795 -5.86872,3.64103 l -4.91872,2.8056 2.32875,-3.89103 c 1.28082,-2.14007 2.70674,-4.31853 3.16873,-4.84103 3.04631,-3.44538 -3.33042,-6.05096 -12.92406,-5.28087 -15.18916,1.21924 -24.75983,14.92642 -24.59901,35.23087 0.0881,11.12047 2.17425,19.40962 7.42495,29.50214 7.32766,14.08468 19.3441,24.68679 31.24357,27.5662 5.30088,1.28269 9.55884,1.07131 15.57522,-0.77324 z M 112,242.38081 c 0,-0.34055 -1.59039,-3.23725 -3.5342,-6.43711 -7.06945,-11.63758 -14.232558,-30.11868 -17.60356,-45.41793 -1.087549,-4.93582 -2.135436,-9.1323 -2.328637,-9.3255 -0.193201,-0.1932 -1.927499,2.4952 -3.853996,5.97423 -9.163486,16.54817 -10.929748,36.07502 -4.595051,50.80042 L 82.246288,243 97.123144,243 C 105.30541,243 112,242.72136 112,242.38081 z m 18.90089,-1.77531 c 1.58119,-1.6831 1.90119,-2.60979 1.0771,-3.1191 C 130.1068,236.32994 121.99723,223.33105 116.70175,213 l -4.8695,-9.5 0.61321,10 c 0.54792,8.9351 1.40794,16.2234 3.09751,26.25 l 0.54766,3.25 6.28037,0 c 5.33231,0 6.61995,-0.36147 8.52989,-2.3945 z m 32.0937,-2.8555 c -2.18608,-2.8875 -5.44167,-8.51201 -7.23464,-12.49891 -1.79297,-3.9869 -3.5617,-7.2494 -3.93049,-7.25 -0.3688,-6e-4 -0.96279,1.32947 -1.31997,2.95571 -0.35719,1.62625 -2.86794,6.64807 -5.57946,11.15962 C 142.21851,236.62796 140,240.9224 140,241.65961 140,242.71386 142.87862,243 153.48465,243 l 13.48464,0 -3.9747,-5.25 z M 142.7475,223.11835 c 5.26312,-11.24131 7.48413,-26.03383 5.61065,-37.36835 l -0.61983,-3.75 -5.75838,0 c -4.05765,0 -6.41568,0.53225 -7.98391,1.80213 -2.21294,1.79193 -2.21906,1.88102 -1.08198,15.75 0.62895,7.67133 1.88762,18.16029 2.79705,23.3088 1.86635,10.5659 2.20424,10.57826 7.0364,0.25742 z m -12.45181,-63.72581 c 4.51237,-1.43411 8.76681,-3.32012 9.45431,-4.19113 0.6875,-0.87102 1.25,-3.31559 1.25,-5.43238 0,-9.82412 -8.56657,-17.1776 -17.05026,-14.63583 -7.06891,2.1179 -11.61666,9.97591 -9.9781,17.24106 0.96586,4.28251 4.65291,9.62574 6.64215,9.62574 0.81267,0 5.16953,-1.17336 9.6819,-2.60746 z m 3.08728,-60.732475 c -11.61962,-5.551688 -15.93186,-20.187844 -9.02359,-30.626944 9.53434,-14.407357 30.23455,-12.898922 37.38716,2.72442 2.02599,4.425362 2.39197,6.425132 1.91417,10.459417 -1.77502,14.987233 -17.02716,23.774042 -30.27774,17.443107 z" id="path2818"/>
</svg>